<svg height="133px" width="133px" version="1.1" id="Layer_1" xmlns="http://www.w3.org/2000/svg" xmlns:xlink="http://www.w3.org/1999/xlink" viewBox="0 0 512 512" xml:space="preserve" fill="#000000"><g id="SVGRepo_bgCarrier" stroke-width="0"></g><g id="SVGRepo_tracerCarrier" stroke-linecap="round" stroke-linejoin="round"></g><g id="SVGRepo_iconCarrier"> <path style="fill:#FF5050;" d="M415.24,503.706H96.76c-9.772,0-17.693-7.921-17.693-17.693V25.987 c0-9.772,7.921-17.693,17.693-17.693H415.24c9.772,0,17.693,7.921,17.693,17.693v460.026 C432.933,495.785,425.012,503.706,415.24,503.706z"></path> <g> <path style="fill:#C84146;" d="M113.038,399.958c0-161.793,80.161-304.86,202.929-391.665H96.76 c-9.772,0-17.693,7.921-17.693,17.693v460.026c0,9.772,7.921,17.693,17.693,17.693h27.542 C116.931,470.298,113.038,435.583,113.038,399.958z"></path> <path style="fill:#C84146;" d="M371.006,441.78H140.994c-9.772,0-17.693-7.921-17.693-17.693V167.533 c0-9.772,7.921-17.693,17.693-17.693h230.013c9.772,0,17.693,7.921,17.693,17.693v256.553 C388.7,433.859,380.779,441.78,371.006,441.78z"></path> </g> <circle style="fill:#C7CFE2;" cx="256" cy="79.067" r="35.387"></circle> <path style="fill:#91282D;" d="M158.687,194.073v97.313c0,4.886,3.961,8.847,8.847,8.847h53.08c4.886,0,8.847,3.961,8.847,8.847 v88.467c0,4.886,3.961,8.847,8.847,8.847h35.387c4.886,0,8.847-3.961,8.847-8.847V309.08c0-4.886,3.961-8.847,8.847-8.847h53.08 c4.886,0,8.847-3.961,8.847-8.847v-97.313c0-4.886-3.961-8.847-8.847-8.847H167.533 C162.648,185.227,158.687,189.188,158.687,194.073z"></path> <path style="fill:#E4EAF8;" d="M353.313,238.307H158.687v53.08c0,4.886,3.961,8.847,8.847,8.847h53.08 c4.886,0,8.847,3.961,8.847,8.847v53.08c0,4.886,3.961,8.847,8.847,8.847h35.387c4.886,0,8.847-3.961,8.847-8.847v-53.08 c0-4.886,3.961-8.847,8.847-8.847h53.08c4.886,0,8.847-3.961,8.847-8.847V238.307z"></path> <path d="M415.24,0H96.76C82.431,0,70.773,11.658,70.773,25.987v460.026C70.773,500.342,82.431,512,96.76,512H415.24 c14.329,0,25.987-11.658,25.987-25.987V25.987C441.227,11.658,429.569,0,415.24,0z M424.639,486.013c0,5.183-4.217,9.4-9.4,9.4 H96.76c-5.183,0-9.4-4.217-9.4-9.4V25.987c0-5.183,4.217-9.4,9.4-9.4H415.24c5.183,0,9.4,4.217,9.4,9.4V486.013z"></path> <path d="M256,122.747c24.085,0,43.68-19.595,43.68-43.68s-19.595-43.68-43.68-43.68c-24.085,0-43.68,19.595-43.68,43.68 S231.915,122.747,256,122.747z M256,51.974c14.939,0,27.093,12.154,27.093,27.093S270.939,106.16,256,106.16 c-14.939,0-27.093-12.154-27.093-27.093S241.061,51.974,256,51.974z"></path> <path d="M158.685,433.486h-17.691c-5.183,0-9.4-4.217-9.4-9.4V167.533c0-5.183,4.217-9.4,9.4-9.4h176.933 c4.58,0,8.294-3.713,8.294-8.294s-3.713-8.294-8.294-8.294H140.994c-14.329,0-25.987,11.658-25.987,25.987v256.553 c0,14.329,11.658,25.987,25.987,25.987h17.691c4.58,0,8.294-3.713,8.294-8.294S163.265,433.486,158.685,433.486z"></path> <path d="M371.006,141.546h-17.691c-4.58,0-8.294,3.713-8.294,8.294s3.713,8.294,8.294,8.294h17.691c5.183,0,9.4,4.217,9.4,9.4 v256.553c0,5.183-4.217,9.4-9.4,9.4H194.073c-4.58,0-8.294,3.713-8.294,8.294s3.713,8.294,8.294,8.294h176.933 c14.329,0,25.987-11.658,25.987-25.987V167.533C396.993,153.204,385.336,141.546,371.006,141.546z"></path> <path d="M221.166,309.08v88.467c0,9.452,7.689,17.14,17.14,17.14h35.387c9.452,0,17.14-7.689,17.14-17.14V309.08 c0-0.305,0.248-0.553,0.553-0.553h53.08c9.452,0,17.14-7.689,17.14-17.14v-97.313c0-9.452-7.689-17.14-17.14-17.14H167.533 c-9.452,0-17.14,7.689-17.14,17.14v97.313c0,9.452,7.689,17.14,17.14,17.14h53.08C220.919,308.527,221.166,308.775,221.166,309.08z M273.693,398.099h-35.387c-0.305,0-0.553-0.248-0.553-0.553V379.3h36.492v18.246C274.246,397.852,273.999,398.099,273.693,398.099z M167.533,193.521h176.933c0.305,0,0.553,0.248,0.553,0.553v35.94H166.981v-35.94C166.981,193.768,167.228,193.521,167.533,193.521z M166.981,291.387V246.6h80.726v24.764l-3.535-3.535c-3.239-3.239-8.491-3.239-11.728,0c-3.239,3.239-3.239,8.491,0,11.728 l17.693,17.693c1.619,1.619,3.742,2.43,5.864,2.43c2.122,0,4.245-0.809,5.864-2.43l17.693-17.693c3.239-3.239,3.239-8.491,0-11.728 c-3.239-3.239-8.491-3.239-11.728,0l-3.535,3.535V246.6h80.726v44.786c0,0.305-0.248,0.553-0.553,0.553h-53.08 c-9.452,0-17.14,7.689-17.14,17.14v53.633h-36.492V309.08c0-9.452-7.689-17.14-17.14-17.14h-53.08 C167.228,291.94,166.981,291.692,166.981,291.387z"></path> <path d="M256,96.207c4.58,0,8.294-3.713,8.294-8.294V70.22c0-4.58-3.713-8.294-8.294-8.294s-8.294,3.713-8.294,8.294v17.693 C247.706,92.494,251.42,96.207,256,96.207z"></path> </g></svg>