<svg viewBox="0 -15.89 64 64" xmlns="http://www.w3.org/2000/svg" fill="#000000"><g id="SVGRepo_bgCarrier" stroke-width="0"></g><g id="SVGRepo_tracerCarrier" stroke-linecap="round" stroke-linejoin="round"></g><g id="SVGRepo_iconCarrier"> <g id="Group_58" data-name="Group 58" transform="translate(-288 -816.195)"> <g id="Group_52" data-name="Group 52"> <path id="Path_116" data-name="Path 116" d="M329.137,842.372l-7.5,3.477a5,5,0,0,1-4.181.064l-21.222-9.369a2,2,0,0,1-1.022-2.637l2.423-5.489" fill="#ff7d78"></path> <path id="Path_117" data-name="Path 117" d="M319.476,847.341a6.027,6.027,0,0,1-2.428-.512l-21.223-9.369a3.005,3.005,0,0,1-1.532-3.958l2.423-5.488a1,1,0,1,1,1.83.809l-2.423,5.488a1,1,0,0,0,.511,1.318L317.856,845a4,4,0,0,0,3.346-.052l7.516-3.482a1,1,0,0,1,.84,1.815l-7.5,3.476A5.959,5.959,0,0,1,319.476,847.341Z"></path> </g> <g id="Group_53" data-name="Group 53"> <path id="Path_118" data-name="Path 118" d="M306.243,821.289a5,5,0,0,0-6.593,2.555l-1.556,3.526-.463,1.048,39.537,17.454a4.78,4.78,0,0,0,6.3-2.443l.177-.4a4.781,4.781,0,0,0-2.443-6.3l-26.273-11.6Z" fill="#ff7d78"></path> <path id="Path_119" data-name="Path 119" d="M339.1,847.281h0a5.743,5.743,0,0,1-2.332-.493l-40.453-17.859,2.423-5.489a6,6,0,0,1,7.912-3.065l34.964,15.434a5.781,5.781,0,0,1,2.954,7.623l-.176.4A5.789,5.789,0,0,1,339.1,847.281Zm-40.148-19.373,38.623,17.05a3.759,3.759,0,0,0,1.525.323h0a3.786,3.786,0,0,0,3.462-2.255l.176-.4a3.785,3.785,0,0,0-1.931-4.986L305.84,822.205a3.96,3.96,0,0,0-1.613-.342,4,4,0,0,0-3.662,2.386Z"></path> </g> <g id="Group_54" data-name="Group 54"> <circle id="Ellipse_18" data-name="Ellipse 18" cx="3.975" cy="3.975" r="3.975" transform="translate(332.419 829.504)" fill="#ff7d78"></circle> <path id="Path_120" data-name="Path 120" d="M336.4,829.5a3.975,3.975,0,1,1-3.639,2.37,3.968,3.968,0,0,1,3.639-2.37m0-2h0a5.975,5.975,0,1,0,2.41.509,5.978,5.978,0,0,0-2.41-.509Z"></path> </g> <g id="Group_55" data-name="Group 55"> <circle id="Ellipse_19" data-name="Ellipse 19" cx="3.975" cy="3.975" r="3.975" transform="translate(306.804 818.196)" fill="#ff7d78"></circle> <path id="Path_121" data-name="Path 121" d="M310.781,818.2a3.975,3.975,0,1,1-3.639,2.37,3.968,3.968,0,0,1,3.639-2.37m0-2h0a5.979,5.979,0,1,0,2.411.51,5.977,5.977,0,0,0-2.411-.51Z"></path> </g> <g id="Group_56" data-name="Group 56"> <line id="Line_62" data-name="Line 62" x1="2.744" y1="1.212" transform="translate(320.287 834.047)" fill="#ff7d78"></line> <path id="Path_122" data-name="Path 122" d="M323.03,836.259a1,1,0,0,1-.4-.085l-2.744-1.212a1,1,0,1,1,.808-1.83l2.745,1.212a1,1,0,0,1-.406,1.915Z"></path> </g> <g id="Group_57" data-name="Group 57"> <line id="Line_63" data-name="Line 63" x1="62" transform="translate(289 847.409)" fill="#ff7d78"></line> <path id="Path_123" data-name="Path 123" d="M351,848.409H289a1,1,0,0,1,0-2h62a1,1,0,0,1,0,2Z"></path> </g> </g> </g></svg>