<svg height="200px" width="200px" version="1.1" id="Layer_1" xmlns="http://www.w3.org/2000/svg" xmlns:xlink="http://www.w3.org/1999/xlink" viewBox="0 0 512 512" xml:space="preserve" fill="#000000"><g id="SVGRepo_bgCarrier" stroke-width="0"></g><g id="SVGRepo_tracerCarrier" stroke-linecap="round" stroke-linejoin="round"></g><g id="SVGRepo_iconCarrier"> <path style="fill:#D87A36;" d="M441.233,488.827H70.767c-25.056,0-47.711-12.824-60.612-34.317 c-12.889-21.493-13.547-47.525-1.753-69.632L182.136,66.983C197.13,39.549,224.74,23.173,256,23.173s58.869,16.375,73.864,43.809 l173.659,317.741c0.022,0.055,0.055,0.11,0.076,0.154c11.794,22.107,11.136,48.139-1.754,69.632 C488.944,476.003,466.288,488.827,441.233,488.827z"></path> <path style="fill:#CA672D;" d="M441.233,488.827c25.056,0,47.711-12.824,60.612-34.317c12.889-21.493,13.547-47.525,1.754-69.632 c-0.022-0.044-0.055-0.099-0.076-0.154L329.863,66.983C314.87,39.549,287.26,23.173,256,23.173v465.653H441.233z"></path> <path style="fill:#F6DF5A;" d="M256,56.844c-18.754,0-35.315,9.826-44.313,26.283L38.027,400.879 c-6.094,11.421-5.754,25.056,1.008,36.302c6.741,11.256,18.611,17.976,31.73,17.976h370.467c13.119,0,24.99-6.718,31.73-17.976 c6.741-11.224,7.102-24.825,0.964-36.389L300.313,83.128C291.315,66.671,274.753,56.844,256,56.844z"></path> <path style="fill:#F0CA45;" d="M441.233,455.156c13.119,0,24.99-6.718,31.73-17.976c6.741-11.224,7.102-24.825,0.964-36.389 L300.313,83.128C291.314,66.671,274.753,56.844,256,56.844v398.312H441.233z"></path> <path style="fill:#D87A36;" d="M360.267,233.364c-3.03-5.051-8.529-8.193-14.478-8.193h-70.147v-98.319 c0-4.938-2.132-9.428-5.612-12.458c-2.02-1.796-4.377-3.143-7.071-3.816c-7.52-1.908-15.264,1.459-18.968,8.305l-92.595,171.16 c-2.806,5.163-2.694,11.448,0.337,16.611c3.03,5.051,8.529,8.193,14.478,8.193h75.759v89.789c0,7.744,5.275,14.478,12.795,16.386 c1.347,0.337,2.694,0.449,4.04,0.449c4.153,0,8.193-1.571,11.224-4.377c1.459-1.235,2.694-2.694,3.592-4.489l2.02-3.816 l84.963-158.926C363.409,244.588,363.297,238.415,360.267,233.364z"></path> <path style="fill:#CA672D;" d="M345.788,225.171h-70.147v-98.319c0-4.938-2.132-9.428-5.612-12.458 c-2.02-1.796-4.377-3.143-7.071-3.816c-2.357-0.598-4.689-0.513-6.959-0.13V421.16c0.935,0.146,1.871,0.312,2.806,0.312 c4.153,0,8.193-1.571,11.224-4.377c1.459-1.235,2.694-2.694,3.592-4.489l2.02-3.816l84.963-158.926 c2.806-5.275,2.694-11.448-0.337-16.499C357.236,228.314,351.737,225.171,345.788,225.171z"></path> </g></svg>