<svg height="200px" width="200px" version="1.1" id="Layer_1" xmlns="http://www.w3.org/2000/svg" xmlns:xlink="http://www.w3.org/1999/xlink" viewBox="0 0 512 512" xml:space="preserve" fill="#000000"><g id="SVGRepo_bgCarrier" stroke-width="0"></g><g id="SVGRepo_tracerCarrier" stroke-linecap="round" stroke-linejoin="round"></g><g id="SVGRepo_iconCarrier"> <path style="fill:#F95428;" d="M282.418,136.378V94.019h-82.483v42.358l-41.597,18.016c-11.855,5.135-19.528,16.82-19.528,29.738 v298.786c0,11.359,9.209,20.567,20.567,20.567h163.598c11.359,0,20.567-9.209,20.567-20.567V184.133 c0-12.919-7.673-24.605-19.528-29.738L282.418,136.378z"></path> <path style="fill:#E03F20;" d="M203.408,154.394l18.965-18.016V94.019h-22.438v42.358l-41.597,18.016 c-11.855,5.135-19.528,16.82-19.528,29.738v298.786c0,11.359,9.209,20.567,20.567,20.567h35.128V184.132 C194.504,171.213,198.002,159.529,203.408,154.394z"></path> <polygon style="fill:#F95428;" points="447.897,9.132 447.897,116.634 345.172,97.583 345.172,79.392 345.172,46.362 345.172,28.171 "></polygon> <polygon style="fill:#E03F20;" points="345.172,73.273 447.897,78.98 447.897,116.634 345.172,97.583 "></polygon> <circle style="fill:#999999;" cx="282.416" cy="46.361" r="21.922"></circle> <path style="fill:#E03F20;" d="M345.172,46.362v33.03h-62.753V68.284c12.108,0,21.922-9.814,21.922-21.922H345.172z"></path> <path style="fill:#E6E6E6;" d="M282.419,79.392v14.626h-82.486L79.688,131.966L62.92,115.198l137.013-68.836h60.564 c0,12.108,9.814,21.922,21.922,21.922V79.392z"></path> <path d="M454.131,2.04c-2.017-1.677-4.673-2.37-7.252-1.892l-19.142,3.548c-4.791,0.888-7.957,5.493-7.068,10.285 c0.888,4.793,5.496,7.954,10.285,7.07l8.707-1.614v86.278l-85.074-15.777V35.204l44.807-8.304c4.791-0.888,7.957-5.493,7.068-10.285 c-0.888-4.794-5.503-7.956-10.285-7.07l-52.024,9.642c-4.182,0.775-7.217,4.424-7.217,8.678v9.366h-24.477 c-3.802-12.665-15.563-21.922-29.45-21.922c-16.954,0-30.747,13.793-30.747,30.747c0,13.887,9.256,25.647,21.922,29.45v9.381 h-73.661c-0.931,0-1.826,0.146-2.669,0.413L82.732,121.631l-4.34-4.34L202.617,54.88h33.385c4.874,0,8.825-3.951,8.825-8.825 s-3.951-8.825-8.825-8.825h-35.477c-1.376,0-2.732,0.321-3.962,0.939L59.55,107.005c-2.532,1.272-4.3,3.683-4.75,6.48 c-0.451,2.798,0.468,5.642,2.472,7.646l16.768,16.768c1.68,1.68,3.936,2.585,6.241,2.585c0.887,0,1.783-0.134,2.655-0.409 L191.7,105.75v24.526l-36.275,15.71c-15.099,6.531-24.855,21.382-24.855,37.835v47.785c0,4.874,3.951,8.825,8.825,8.825 c4.874,0,8.825-3.951,8.825-8.825V183.82c0-9.409,5.579-17.901,14.216-21.636l39.92-17.289h51.885c4.875,0,8.825-3.951,8.825-8.825 c0-4.874-3.95-8.825-8.825-8.825H209.35v-24.709h64.835v33.536c0,3.518,2.089,6.7,5.319,8.098l41.597,18.015 c8.635,3.738,14.214,12.232,14.214,21.636v298.786c0,6.475-5.268,11.742-11.742,11.742H159.962c-6.474,0-11.742-5.268-11.742-11.742 V263.377c0-4.874-3.951-8.825-8.825-8.825c-4.874,0-8.825,3.951-8.825,8.825v219.23c0,16.208,13.186,29.392,29.392,29.392h163.609 c16.207,0,29.392-13.186,29.392-29.392V183.822c0-16.447-9.755-31.298-24.852-37.833l-36.277-15.712V93.711V87.91h45.102v9.366 c0,4.254,3.034,7.901,7.217,8.677l102.725,19.051c0.534,0.099,1.073,0.148,1.609,0.148c2.044,0,4.045-0.711,5.643-2.039 c2.016-1.677,3.182-4.163,3.182-6.786V8.825C457.312,6.203,456.146,3.717,454.131,2.04z M269.913,46.055 c0-7.221,5.875-13.097,13.097-13.097c7.221,0,13.097,5.875,13.097,13.097s-5.875,13.097-13.097,13.097 C275.788,59.152,269.913,53.276,269.913,46.055z M301.937,70.26c4.943-3.874,8.675-9.221,10.523-15.379h24.477V70.26H301.937z"></path> </g></svg>