<svg version="1.1" id="Layer_1" xmlns="http://www.w3.org/2000/svg" xmlns:xlink="http://www.w3.org/1999/xlink" viewBox="0 0 512 512" xml:space="preserve" fill="#000000"><g id="SVGRepo_bgCarrier" stroke-width="0"></g><g id="SVGRepo_tracerCarrier" stroke-linecap="round" stroke-linejoin="round"></g><g id="SVGRepo_iconCarrier"> <g> <rect x="128.292" y="9.263" style="fill:#F95428;" width="40.377" height="494.098"></rect> <rect x="342.125" y="9.263" style="fill:#F95428;" width="40.377" height="494.098"></rect> </g> <path d="M383.104,318.982c4.945,0,8.951-4.008,8.951-8.952V8.951c0-4.944-4.007-8.951-8.951-8.951h-40.377 c-4.945,0-8.952,4.008-8.952,8.951v24.927H220.198c-4.944,0-8.951,4.008-8.951,8.951s4.008,8.951,8.951,8.951h113.578v67.365 H178.225V51.781h15.715c4.944,0,8.951-4.008,8.951-8.951s-4.008-8.951-8.951-8.951h-15.715V8.951c0-4.944-4.008-8.951-8.951-8.951 h-40.378c-4.944,0-8.951,4.008-8.951,8.951v494.097c0,4.944,4.008,8.951,8.951,8.951h40.378c4.944,0,8.951-4.008,8.951-8.951 v-24.927h102.843c4.945,0,8.952-4.008,8.952-8.952s-4.007-8.951-8.952-8.951H178.225v-67.365h155.552v67.365h-26.45 c-4.945,0-8.952,4.008-8.952,8.951s4.007,8.952,8.952,8.952h26.45v24.927c0,4.944,4.007,8.951,8.951,8.951h40.377 c4.945,0,8.952-4.008,8.952-8.951V338.675c0-4.944-4.007-8.952-8.952-8.952c-4.945,0-8.951,4.008-8.951,8.952v155.423H351.68V17.903 h22.474v292.128C374.152,314.974,378.16,318.982,383.104,318.982z M178.225,222.318h155.552v67.365H178.225V222.318z M333.775,137.05v67.365H178.225V137.05C178.225,137.05,333.775,137.05,333.775,137.05z M160.322,494.097h-22.475V17.903h22.475 V494.097z M178.225,374.952v-67.365h155.552v67.365H178.225z"></path> </g></svg>