<svg fill="#000000" height="83px" width="83px" version="1.2" baseProfile="tiny" id="Layer_1" xmlns="http://www.w3.org/2000/svg" xmlns:xlink="http://www.w3.org/1999/xlink" viewBox="0 0 256 256" xml:space="preserve"><g id="SVGRepo_bgCarrier" stroke-width="0"></g><g id="SVGRepo_tracerCarrier" stroke-linecap="round" stroke-linejoin="round"></g><g id="SVGRepo_iconCarrier"> <path id="XMLID_4_" d="M119.9,43.8c-11.7-0.9-20.4-11.1-19.5-22.8c0.9-11.7,11.1-20.4,22.8-19.5c11.7,0.9,20.4,11.1,19.5,22.8 C141.8,36,131.6,44.7,119.9,43.8 M125.7,86.3c6.6,1.2,11.6,7.1,11.6,14.1c0,7.9-6.4,14.3-14.3,14.3H76.5c-5,0-9.1-4.1-9.1-9.1 c0-1.2,0.2-2.4,0.7-3.4l5-11.7l55.9-40.1h-26.7C92.2,50.1,85,53.6,80.9,61.7c-2.8,5.4-17.6,38.6-17.6,38.6c-0.7,1.6-1,3.4-1,5.3 c0,7.9,6.4,14.3,14.3,14.3h18.1l-5.4,35.2l-28.2,81.4c-2.4,7.2,1.6,14.9,8.7,17.3c7.2,2.4,14.9-1.5,17.3-8.7l32.4-91.8 c6.3,10.3,18.9,28.7,21,32.1c0.5,5.8,5,56.7,5,56.7c0.7,7.6,7.3,13.1,14.9,12.4c7.5-0.6,13.1-7.3,12.4-14.9l-5.3-59.9 c-0.2-2.1-0.9-4.2-2-6L142.3,136l3.7-47.4c0,0,5.5,18.7,5.9,20.1c1.2,3.9,3.9,6.6,6.6,8.9c1.6,1.3,28.8,19.8,28.8,19.8 c1.5,0.7,2.7,1.3,4.4,1.4c5.3,0.4,9.9-3.5,10.3-8.8c0.3-3.4-1.2-6.5-3.7-8.4c0,0-27.1-18.6-28.2-19.4c-0.9-0.7-1.6-1.9-1.8-2.5 l-10.7-38.6c-1.7-5.8-7.6-10.9-15.1-10.9h-3.2L125.7,86.3z M123,109.4c5,0,9.1-4.1,9.1-9.1c0-4.7-3.6-8.5-8.1-9l-6.6,18.2L123,109.4 z"></path> </g></svg>