<svg version="1.1" id="Layer_1" xmlns="http://www.w3.org/2000/svg" xmlns:xlink="http://www.w3.org/1999/xlink" viewBox="0 0 512 512" xml:space="preserve" fill="#000000"><g id="SVGRepo_bgCarrier" stroke-width="0"></g><g id="SVGRepo_tracerCarrier" stroke-linecap="round" stroke-linejoin="round"></g><g id="SVGRepo_iconCarrier"> <rect x="77.256" y="14.199" style="fill:#E6E6E6;" width="356.174" height="117.642"></rect> <rect x="9.164" y="131.837" style="fill:#F95428;" width="492.358" height="366.65"></rect> <rect x="53.685" y="240.522" style="fill:#E6E6E6;" width="257.964" height="257.964"></rect> <rect x="53.685" y="240.522" style="fill:#CCCCCC;" width="257.964" height="24.234"></rect> <rect x="356.973" y="331.255" style="fill:#F7B239;" width="98.72" height="167.231"></rect> <rect x="356.973" y="184.595" style="fill:#E6E6E6;" width="98.72" height="98.72"></rect> <path d="M502.179,266.503c5.425,0,9.821-4.397,9.821-9.821V131.495c0-5.424-4.396-9.821-9.821-9.821h-58.271V13.857 c0-5.424-4.396-9.821-9.821-9.821H77.913c-5.425,0-9.821,4.397-9.821,9.821v84.598c0,5.424,4.396,9.821,9.821,9.821 c5.425,0,9.821-4.397,9.821-9.821V23.678h336.532v97.995H9.821c-5.425,0-9.821,4.397-9.821,9.821v366.65 c0,5.424,4.396,9.821,9.821,9.821h492.358c5.425,0,9.821-4.397,9.821-9.821V286.363c0-5.424-4.396-9.821-9.821-9.821 s-9.821,4.397-9.821,9.821v201.96h-26.189V330.91c0-5.424-4.396-9.821-9.821-9.821h-98.722c-5.425,0-9.821,4.397-9.821,9.821 v157.412h-25.677V240.179c0-5.424-4.396-9.821-9.821-9.821H54.343c-5.425,0-9.821,4.397-9.821,9.821v248.143h-24.88V141.315h472.716 v115.366C492.358,262.106,496.754,266.503,502.179,266.503z M367.447,340.731h79.08v147.591h-79.08V340.731z M64.164,408.983H225.45 c5.425,0,9.821-4.397,9.821-9.821c0-5.424-4.396-9.821-9.821-9.821H64.164v-34.642h238.322v34.642h-47.791 c-5.425,0-9.821,4.397-9.821,9.821c0,5.424,4.396,9.821,9.821,9.821h47.791v34.642H64.164V408.983z M302.486,250v30.772H116.327 c-5.425,0-9.821,4.397-9.821,9.821s4.396,9.821,9.821,9.821h186.158v34.642H64.164v-34.642h24.229c5.425,0,9.821-4.397,9.821-9.821 s-4.396-9.821-9.821-9.821H64.164V250H302.486z M64.164,463.267h238.322v25.057H64.164V463.267z"></path> <path d="M372.11,194.072c5.425,0,9.821-4.397,9.821-9.821c0-5.424-4.396-9.821-9.821-9.821h-14.484 c-5.425,0-9.821,4.397-9.821,9.821v98.722c0,5.424,4.396,9.821,9.821,9.821h98.722c5.425,0,9.821-4.397,9.821-9.821v-98.722 c0-5.424-4.396-9.821-9.821-9.821h-55.43c-5.425,0-9.821,4.397-9.821,9.821c0,5.424,4.396,9.821,9.821,9.821h45.609v79.08h-29.718 v-54.523c0-5.424-4.396-9.821-9.821-9.821s-9.821,4.397-9.821,9.821v54.523h-29.718v-79.08H372.11z"></path> <path d="M220.931,100.199V45.152c0-5.424-4.396-9.821-9.821-9.821s-9.821,4.397-9.821,9.821V100.2c0,5.424,4.396,9.821,9.821,9.821 S220.931,105.623,220.931,100.199z"></path> <path d="M148.84,54.973c5.425,0,9.821-4.397,9.821-9.821s-4.396-9.821-9.821-9.821h-23.593c-5.425,0-9.821,4.397-9.821,9.821V100.2 c0,5.424,4.396,9.821,9.821,9.821c5.425,0,9.821-4.397,9.821-9.821V82.889h9.052c5.425,0,9.821-4.397,9.821-9.821 c0-5.424-4.396-9.821-9.821-9.821h-9.052v-8.276h13.772V54.973z"></path> <path d="M386.752,54.973c5.425,0,9.821-4.397,9.821-9.821s-4.396-9.821-9.821-9.821H363.16c-5.425,0-9.821,4.397-9.821,9.821V100.2 c0,5.424,4.396,9.821,9.821,9.821h23.593c5.425,0,9.821-4.397,9.821-9.821c0-5.424-4.396-9.821-9.821-9.821h-13.772v-7.49h9.052 c5.425,0,9.821-4.397,9.821-9.821c0-5.424-4.396-9.821-9.821-9.821h-9.052v-8.276h13.772V54.973z"></path> <path d="M316.157,60.093c0-13.654-11.108-24.762-24.763-24.762h-13.762c-5.425,0-9.821,4.397-9.821,9.821V100.2 c0,5.424,4.396,9.821,9.821,9.821s9.821-4.397,9.821-9.821V87.257l11.344,18.148c1.863,2.98,5.062,4.617,8.336,4.617 c1.778,0,3.577-0.483,5.197-1.494c4.599-2.876,5.997-8.934,3.122-13.533l-9.378-15.004 C312.176,75.475,316.157,68.249,316.157,60.093z M287.453,54.973h3.941c2.823,0,5.121,2.297,5.121,5.12 c0,2.823-2.298,5.121-5.121,5.121h-3.941V54.973z"></path> <path d="M399.786,407.488H386.95c-5.425,0-9.821,4.397-9.821,9.821c0,5.424,4.396,9.821,9.821,9.821h12.835 c5.425,0,9.821-4.397,9.821-9.821C409.607,411.885,405.209,407.488,399.786,407.488z"></path> </g></svg>